<svg xmlns="http://www.w3.org/2000/svg" xmlns:v="https://svgstorm.com"
viewBox = "0 0 1024 1024"
width="1024"
height="1024">
<g fill="None" fill-opacity="0.0" stroke="#000000" stroke-opacity="0.00" stroke-width="0.3"><path d="
M 0.00 1024.00 
L 507.00 1024.00
C 386.07 988.84 263.55 956.25 142.00 922.00
C 115.10 614.56 87.30 307.35 60.00 0.00
L 0.00 0.00
L 0.00 1024.00 Z"/>
</g>
<g fill="None" fill-opacity="0.0" stroke="#214CE5" stroke-opacity="1.00" stroke-width="0.3"><path d="
M 507.00 1024.00 
L 515.00 1024.00
C 636.79 989.45 759.68 955.90 882.00 922.00
C 908.72 614.52 936.72 307.35 964.00 0.00
L 60.00 0.00
C 87.30 307.35 115.10 614.56 142.00 922.00
C 263.55 956.25 386.07 988.84 507.00 1024.00
M 512.00 828.00 
C 500.15 828.00 488.62 821.09 476.98 819.02 C 465.33 816.96 454.43 811.95 442.78 809.22 C 431.12 806.49 419.05 802.61 407.33 799.67 C 395.61 796.74 384.88 792.81 372.98 790.02 C 361.07 787.24 350.09 782.90 337.93 780.07 C 325.77 777.25 316.14 773.26 303.33 770.67 C 290.51 768.08 277.38 765.33 279.00 750.00 C 280.62 734.67 274.37 724.52 275.00 710.00 C 275.63 695.48 271.45 683.02 271.02 668.98 C 270.59 654.93 269.10 641.79 268.00 628.00 C 266.90 614.21 264.95 600.83 264.00 587.00
C 302.00 587.00 340.00 587.00 378.00 587.00
C 379.21 617.28 384.16 646.62 385.00 677.00
C 426.79 687.29 468.12 699.90 510.00 710.00
C 515.32 707.72 510.96 693.76 512.00 687.00 C 513.04 680.24 511.53 668.81 512.00 661.00 C 512.47 653.19 511.79 643.28 512.00 635.00 C 512.21 626.72 511.90 617.49 512.00 609.00 C 512.10 600.51 511.96 591.58 512.00 583.00 C 512.05 574.42 511.98 565.62 512.00 557.00 C 512.02 548.38 511.98 539.63 512.00 531.00
C 427.83 530.33 342.35 532.34 259.00 530.00
C 256.44 527.04 258.73 520.29 258.00 516.00 C 257.27 511.71 256.96 507.80 256.22 502.78 C 255.49 497.76 256.00 494.83 255.22 488.78 C 254.44 482.73 254.65 481.72 254.00 474.00 C 253.35 466.27 252.13 454.36 251.22 446.78 C 250.31 439.20 249.41 438.09 250.01 432.99 C 250.61 427.89 246.76 421.34 249.00 418.00
C 251.89 413.70 264.39 418.28 270.00 417.00 C 275.61 415.72 285.45 417.58 292.00 417.00 C 298.55 416.42 307.02 417.26 314.00 417.00 C 320.98 416.74 328.83 417.12 336.00 417.00 C 343.17 416.88 350.74 417.05 358.00 417.00 C 365.26 416.95 372.70 417.02 380.00 417.00 C 387.30 416.98 394.68 417.01 402.00 417.00 C 409.32 416.99 416.67 417.01 424.00 417.00 C 431.33 416.99 438.67 417.00 446.00 417.00 C 453.33 417.00 460.67 417.00 468.00 417.00 C 475.33 417.00 482.67 417.00 490.00 417.00 C 497.33 417.00 504.67 417.00 512.00 417.00
C 509.43 378.90 515.43 340.02 512.00 302.00
C 511.50 302.00 511.00 302.00 511.00 302.00
C 499.34 302.00 487.65 302.01 476.00 302.00 C 464.35 301.99 452.64 302.02 441.00 302.00 C 429.36 301.98 417.62 302.04 406.00 302.00 C 394.38 301.96 382.56 302.10 371.00 302.00 C 359.44 301.90 347.43 302.22 336.00 302.00 C 324.57 301.78 312.15 302.48 301.00 302.00 C 289.85 301.52 276.52 303.06 266.00 302.00 C 255.48 300.94 238.73 307.30 238.00 295.00
C 237.58 287.91 236.34 280.99 236.01 273.99 C 235.68 266.99 234.29 259.80 234.02 252.98 C 233.76 246.15 232.16 238.41 232.07 231.93 C 231.99 225.44 229.65 216.55 230.22 210.78 C 230.79 205.01 225.80 193.58 229.00 189.00
C 231.95 184.78 243.32 189.17 249.00 188.00 C 254.68 186.83 264.41 188.53 271.00 188.00 C 277.59 187.47 286.01 188.24 293.00 188.00 C 299.99 187.76 307.84 188.11 315.00 188.00 C 322.16 187.89 329.77 188.05 337.00 188.00 C 344.23 187.95 351.78 188.02 359.00 188.00 C 366.22 187.98 372.76 188.01 380.00 188.00 C 387.24 187.99 394.71 188.00 402.00 188.00 C 409.29 188.00 416.69 188.00 424.00 188.00 C 431.31 188.00 438.68 188.00 446.00 188.00 C 453.32 188.00 460.67 188.00 468.00 188.00 C 475.33 188.00 482.67 188.00 490.00 188.00 C 497.33 188.00 504.67 188.00 512.00 188.00
C 512.00 150.33 512.00 112.67 512.00 75.00
C 635.00 75.00 758.00 75.00 881.00 75.00
C 858.10 337.77 833.75 600.18 811.00 863.00
C 711.19 889.72 612.04 918.98 512.00 945.00
C 512.00 906.00 512.00 867.00 512.00 828.00 Z"/>
</g>
<g fill="None" fill-opacity="0.0" stroke="#000000" stroke-opacity="0.00" stroke-width="0.3"><path d="
M 515.00 1024.00 
L 1024.00 1024.00
L 1024.00 0.00
L 964.00 0.00
C 936.72 307.35 908.72 614.52 882.00 922.00
C 759.68 955.90 636.79 989.45 515.00 1024.00 Z"/>
</g>
<g fill="None" fill-opacity="0.0" stroke="#2465F0" stroke-opacity="1.00" stroke-width="0.3"><path d="
M 512.00 188.00 
C 606.34 188.00 700.66 188.00 795.00 188.00
C 794.61 189.57 795.94 192.22 794.00 193.00
C 790.45 288.45 775.15 382.73 769.00 478.00 C 762.85 573.27 749.49 668.40 744.00 764.00
C 666.68 785.43 589.55 807.41 512.00 828.00
C 512.00 867.00 512.00 906.00 512.00 945.00
C 612.04 918.98 711.19 889.72 811.00 863.00
C 833.75 600.18 858.10 337.77 881.00 75.00
C 758.00 75.00 635.00 75.00 512.00 75.00
C 512.00 112.67 512.00 150.33 512.00 188.00 Z"/>
</g>
<g fill="None" fill-opacity="0.0" stroke="#A3B7F1" stroke-opacity="1.00" stroke-width="0.3"><path d="
M 229.00 189.00 
C 417.33 189.00 605.67 189.00 794.00 189.00
C 794.00 190.33 794.00 191.67 794.00 193.00
C 795.94 192.22 794.61 189.57 795.00 188.00
C 700.66 188.00 606.34 188.00 512.00 188.00
C 504.67 188.00 497.33 188.00 490.00 188.00 C 482.67 188.00 475.33 188.00 468.00 188.00 C 460.67 188.00 453.32 188.00 446.00 188.00 C 438.68 188.00 431.31 188.00 424.00 188.00 C 416.69 188.00 409.29 188.00 402.00 188.00 C 394.71 188.00 387.24 187.99 380.00 188.00 C 372.76 188.01 366.22 187.98 359.00 188.00 C 351.78 188.02 344.23 187.95 337.00 188.00 C 329.77 188.05 322.16 187.89 315.00 188.00 C 307.84 188.11 299.99 187.76 293.00 188.00 C 286.01 188.24 277.59 187.47 271.00 188.00 C 264.41 188.53 254.68 186.83 249.00 188.00 C 243.32 189.17 231.95 184.78 229.00 189.00 Z"/>
</g>
<g fill="None" fill-opacity="0.0" stroke="#F5F5F5" stroke-opacity="1.00" stroke-width="0.3"><path d="
M 238.00 295.00 
C 238.20 296.38 239.89 298.94 239.00 301.00
C 329.66 301.00 420.33 301.00 511.00 301.00
C 564.33 301.00 617.67 301.00 671.00 301.00
C 670.61 302.57 671.94 305.22 670.00 306.00
C 669.76 312.35 669.88 318.90 669.00 325.00 C 668.12 331.10 667.93 337.00 667.01 343.01 C 666.08 349.02 666.57 355.72 665.67 361.67 C 664.77 367.62 665.07 374.23 664.00 380.00 C 662.94 385.77 663.84 392.74 662.02 398.02 C 660.21 403.31 664.05 412.64 661.00 417.00
C 657.94 421.38 645.92 416.76 640.00 418.00 C 634.08 419.24 623.88 417.44 617.00 418.00 C 610.12 418.56 601.31 417.75 594.00 418.00 C 586.69 418.25 578.51 417.89 571.00 418.00 C 563.49 418.11 555.59 417.95 548.00 418.00 C 540.41 418.05 532.63 417.98 525.00 418.00 C 517.37 418.02 509.65 417.99 502.00 418.00 C 494.35 418.01 486.66 418.00 479.00 418.00 C 471.34 418.00 463.66 418.00 456.00 418.00 C 448.34 418.00 440.67 418.00 433.00 418.00 C 425.33 418.00 417.67 418.00 410.00 418.00 C 402.33 418.00 394.67 418.00 387.00 418.00 C 379.33 418.00 371.67 418.00 364.00 418.00 C 356.33 418.00 348.67 418.00 341.00 418.00 C 333.33 418.00 325.67 418.00 318.00 418.00 C 310.33 418.00 302.67 418.00 295.00 418.00 C 287.33 418.00 279.67 418.00 272.00 418.00 C 264.33 418.00 256.67 418.00 249.00 418.00
C 246.76 421.34 250.61 427.89 250.01 432.99 C 249.41 438.09 250.31 439.20 251.22 446.78 C 252.13 454.36 253.35 466.27 254.00 474.00 C 254.65 481.72 254.44 482.73 255.22 488.78 C 256.00 494.83 255.49 497.76 256.22 502.78 C 256.96 507.80 257.27 511.71 258.00 516.00 C 258.73 520.29 256.44 527.04 259.00 530.00
C 343.33 530.00 427.67 530.00 512.00 530.00
C 558.33 530.00 604.67 530.00 651.00 530.00
C 650.61 531.57 651.94 534.22 650.00 535.00
C 648.23 582.59 640.15 629.41 638.00 677.00
C 595.33 687.00 551.93 701.80 510.00 710.00
C 468.12 699.90 426.79 687.29 385.00 677.00
C 384.16 646.62 379.21 617.28 378.00 587.00
C 340.00 587.00 302.00 587.00 264.00 587.00
C 264.95 600.83 266.90 614.21 268.00 628.00 C 269.10 641.79 270.59 654.93 271.02 668.98 C 271.45 683.02 275.63 695.48 275.00 710.00 C 274.37 724.52 280.62 734.67 279.00 750.00 C 277.38 765.33 290.51 768.08 303.33 770.67 C 316.14 773.26 325.77 777.25 337.93 780.07 C 350.09 782.90 361.07 787.24 372.98 790.02 C 384.88 792.81 395.61 796.74 407.33 799.67 C 419.05 802.61 431.12 806.49 442.78 809.22 C 454.43 811.95 465.33 816.96 476.98 819.02 C 488.62 821.09 500.15 828.00 512.00 828.00
C 589.55 807.41 666.68 785.43 744.00 764.00
C 749.49 668.40 762.85 573.27 769.00 478.00 C 775.15 382.73 790.45 288.45 794.00 193.00
C 794.00 191.67 794.00 190.33 794.00 189.00
C 605.67 189.00 417.33 189.00 229.00 189.00
C 225.80 193.58 230.79 205.01 230.22 210.78 C 229.65 216.55 231.99 225.44 232.07 231.93 C 232.16 238.41 233.76 246.15 234.02 252.98 C 234.29 259.80 235.68 266.99 236.01 273.99 C 236.34 280.99 237.58 287.91 238.00 295.00 Z"/>
</g>
<g fill="None" fill-opacity="0.0" stroke="#768DE8" stroke-opacity="1.00" stroke-width="0.3"><path d="
M 511.00 302.00 
C 510.75 301.75 511.00 301.00 511.00 301.00
C 420.33 301.00 329.66 301.00 239.00 301.00
C 239.89 298.94 238.20 296.38 238.00 295.00
C 238.73 307.30 255.48 300.94 266.00 302.00 C 276.52 303.06 289.85 301.52 301.00 302.00 C 312.15 302.48 324.57 301.78 336.00 302.00 C 347.43 302.22 359.44 301.90 371.00 302.00 C 382.56 302.10 394.38 301.96 406.00 302.00 C 417.62 302.04 429.36 301.98 441.00 302.00 C 452.64 302.02 464.35 301.99 476.00 302.00 C 487.65 302.01 499.34 302.00 511.00 302.00 Z"/>
</g>
<g fill="None" fill-opacity="0.0" stroke="#7FA3F6" stroke-opacity="1.00" stroke-width="0.3"><path d="
M 511.00 302.00 
C 511.00 302.00 511.50 302.00 512.00 302.00
C 564.67 302.00 617.33 302.00 670.00 302.00
C 670.00 303.33 670.00 304.67 670.00 306.00
C 671.94 305.22 670.61 302.57 671.00 301.00
C 617.67 301.00 564.33 301.00 511.00 301.00
C 511.00 301.00 510.75 301.75 511.00 302.00 Z"/>
</g>
<g fill="None" fill-opacity="0.0" stroke="#2465F0" stroke-opacity="1.00" stroke-width="0.3"><path d="
M 512.00 417.00 
C 561.67 417.00 611.33 417.00 661.00 417.00
C 664.05 412.64 660.21 403.31 662.02 398.02 C 663.84 392.74 662.94 385.77 664.00 380.00 C 665.07 374.23 664.77 367.62 665.67 361.67 C 666.57 355.72 666.08 349.02 667.01 343.01 C 667.93 337.00 668.12 331.10 669.00 325.00 C 669.88 318.90 669.76 312.35 670.00 306.00
C 670.00 304.67 670.00 303.33 670.00 302.00
C 617.33 302.00 564.67 302.00 512.00 302.00
C 515.43 340.02 509.43 378.90 512.00 417.00 Z"/>
</g>
<g fill="None" fill-opacity="0.0" stroke="#CAD3F1" stroke-opacity="1.00" stroke-width="0.3"><path d="
M 249.00 418.00 
C 256.67 418.00 264.33 418.00 272.00 418.00 C 279.67 418.00 287.33 418.00 295.00 418.00 C 302.67 418.00 310.33 418.00 318.00 418.00 C 325.67 418.00 333.33 418.00 341.00 418.00 C 348.67 418.00 356.33 418.00 364.00 418.00 C 371.67 418.00 379.33 418.00 387.00 418.00 C 394.67 418.00 402.33 418.00 410.00 418.00 C 417.67 418.00 425.33 418.00 433.00 418.00 C 440.67 418.00 448.34 418.00 456.00 418.00 C 463.66 418.00 471.34 418.00 479.00 418.00 C 486.66 418.00 494.35 418.01 502.00 418.00 C 509.65 417.99 517.37 418.02 525.00 418.00 C 532.63 417.98 540.41 418.05 548.00 418.00 C 555.59 417.95 563.49 418.11 571.00 418.00 C 578.51 417.89 586.69 418.25 594.00 418.00 C 601.31 417.75 610.12 418.56 617.00 418.00 C 623.88 417.44 634.08 419.24 640.00 418.00 C 645.92 416.76 657.94 421.38 661.00 417.00
C 611.33 417.00 561.67 417.00 512.00 417.00
C 504.67 417.00 497.33 417.00 490.00 417.00 C 482.67 417.00 475.33 417.00 468.00 417.00 C 460.67 417.00 453.33 417.00 446.00 417.00 C 438.67 417.00 431.33 416.99 424.00 417.00 C 416.67 417.01 409.32 416.99 402.00 417.00 C 394.68 417.01 387.30 416.98 380.00 417.00 C 372.70 417.02 365.26 416.95 358.00 417.00 C 350.74 417.05 343.17 416.88 336.00 417.00 C 328.83 417.12 320.98 416.74 314.00 417.00 C 307.02 417.26 298.55 416.42 292.00 417.00 C 285.45 417.58 275.61 415.72 270.00 417.00 C 264.39 418.28 251.89 413.70 249.00 418.00 Z"/>
</g>
<g fill="None" fill-opacity="0.0" stroke="#2565F0" stroke-opacity="1.00" stroke-width="0.3"><path d="
M 510.00 710.00 
C 551.93 701.80 595.33 687.00 638.00 677.00
C 640.15 629.41 648.23 582.59 650.00 535.00
C 649.74 533.72 650.20 532.29 650.00 531.00
C 604.17 530.34 557.01 532.33 512.00 530.00
C 427.67 530.00 343.33 530.00 259.00 530.00
C 342.35 532.34 427.83 530.33 512.00 531.00
C 511.98 539.63 512.02 548.38 512.00 557.00 C 511.98 565.62 512.05 574.42 512.00 583.00 C 511.96 591.58 512.10 600.51 512.00 609.00 C 511.90 617.49 512.21 626.72 512.00 635.00 C 511.79 643.28 512.47 653.19 512.00 661.00 C 511.53 668.81 513.04 680.24 512.00 687.00 C 510.96 693.76 515.32 707.72 510.00 710.00 Z"/>
</g>
<g fill="None" fill-opacity="0.0" stroke="#5486F4" stroke-opacity="1.00" stroke-width="0.3"><path d="
M 650.00 535.00 
C 651.94 534.22 650.61 531.57 651.00 530.00
C 604.67 530.00 558.33 530.00 512.00 530.00
C 557.01 532.33 604.17 530.34 650.00 531.00
C 650.20 532.29 649.74 533.72 650.00 535.00 Z"/>
</g>
<g fill="#000000" fill-opacity="0.00" stroke="None">
<path d="
M 0.00 1024.00 
L 507.00 1024.00
C 386.07 988.84 263.55 956.25 142.00 922.00
C 115.10 614.56 87.30 307.35 60.00 0.00
L 0.00 0.00
L 0.00 1024.00 Z"/>
</g>
<g fill="#214CE5" fill-opacity="1.00" stroke="None">
<path d="
M 507.00 1024.00 
L 515.00 1024.00
C 636.79 989.45 759.68 955.90 882.00 922.00
C 908.72 614.52 936.72 307.35 964.00 0.00
L 60.00 0.00
C 87.30 307.35 115.10 614.56 142.00 922.00
C 263.55 956.25 386.07 988.84 507.00 1024.00
M 512.00 828.00 
C 500.15 828.00 488.62 821.09 476.98 819.02 C 465.33 816.96 454.43 811.95 442.78 809.22 C 431.12 806.49 419.05 802.61 407.33 799.67 C 395.61 796.74 384.88 792.81 372.98 790.02 C 361.07 787.24 350.09 782.90 337.93 780.07 C 325.77 777.25 316.14 773.26 303.33 770.67 C 290.51 768.08 277.38 765.33 279.00 750.00 C 280.62 734.67 274.37 724.52 275.00 710.00 C 275.63 695.48 271.45 683.02 271.02 668.98 C 270.59 654.93 269.10 641.79 268.00 628.00 C 266.90 614.21 264.95 600.83 264.00 587.00
C 302.00 587.00 340.00 587.00 378.00 587.00
C 379.21 617.28 384.16 646.62 385.00 677.00
C 426.79 687.29 468.12 699.90 510.00 710.00
C 515.32 707.72 510.96 693.76 512.00 687.00 C 513.04 680.24 511.53 668.81 512.00 661.00 C 512.47 653.19 511.79 643.28 512.00 635.00 C 512.21 626.72 511.90 617.49 512.00 609.00 C 512.10 600.51 511.96 591.58 512.00 583.00 C 512.05 574.42 511.98 565.62 512.00 557.00 C 512.02 548.38 511.98 539.63 512.00 531.00
C 427.83 530.33 342.35 532.34 259.00 530.00
C 256.44 527.04 258.73 520.29 258.00 516.00 C 257.27 511.71 256.96 507.80 256.22 502.78 C 255.49 497.76 256.00 494.83 255.22 488.78 C 254.44 482.73 254.65 481.72 254.00 474.00 C 253.35 466.27 252.13 454.36 251.22 446.78 C 250.31 439.20 249.41 438.09 250.01 432.99 C 250.61 427.89 246.76 421.34 249.00 418.00
C 251.89 413.70 264.39 418.28 270.00 417.00 C 275.61 415.72 285.45 417.58 292.00 417.00 C 298.55 416.42 307.02 417.26 314.00 417.00 C 320.98 416.74 328.83 417.12 336.00 417.00 C 343.17 416.88 350.74 417.05 358.00 417.00 C 365.26 416.95 372.70 417.02 380.00 417.00 C 387.30 416.98 394.68 417.01 402.00 417.00 C 409.32 416.99 416.67 417.01 424.00 417.00 C 431.33 416.99 438.67 417.00 446.00 417.00 C 453.33 417.00 460.67 417.00 468.00 417.00 C 475.33 417.00 482.67 417.00 490.00 417.00 C 497.33 417.00 504.67 417.00 512.00 417.00
C 509.43 378.90 515.43 340.02 512.00 302.00
C 511.50 302.00 511.00 302.00 511.00 302.00
C 499.34 302.00 487.65 302.01 476.00 302.00 C 464.35 301.99 452.64 302.02 441.00 302.00 C 429.36 301.98 417.62 302.04 406.00 302.00 C 394.38 301.96 382.56 302.10 371.00 302.00 C 359.44 301.90 347.43 302.22 336.00 302.00 C 324.57 301.78 312.15 302.48 301.00 302.00 C 289.85 301.52 276.52 303.06 266.00 302.00 C 255.48 300.94 238.73 307.30 238.00 295.00
C 237.58 287.91 236.34 280.99 236.01 273.99 C 235.68 266.99 234.29 259.80 234.02 252.98 C 233.76 246.15 232.16 238.41 232.07 231.93 C 231.99 225.44 229.65 216.55 230.22 210.78 C 230.79 205.01 225.80 193.58 229.00 189.00
C 231.95 184.78 243.32 189.17 249.00 188.00 C 254.68 186.83 264.41 188.53 271.00 188.00 C 277.59 187.47 286.01 188.24 293.00 188.00 C 299.99 187.76 307.84 188.11 315.00 188.00 C 322.16 187.89 329.77 188.05 337.00 188.00 C 344.23 187.95 351.78 188.02 359.00 188.00 C 366.22 187.98 372.76 188.01 380.00 188.00 C 387.24 187.99 394.71 188.00 402.00 188.00 C 409.29 188.00 416.69 188.00 424.00 188.00 C 431.31 188.00 438.68 188.00 446.00 188.00 C 453.32 188.00 460.67 188.00 468.00 188.00 C 475.33 188.00 482.67 188.00 490.00 188.00 C 497.33 188.00 504.67 188.00 512.00 188.00
C 512.00 150.33 512.00 112.67 512.00 75.00
C 635.00 75.00 758.00 75.00 881.00 75.00
C 858.10 337.77 833.75 600.18 811.00 863.00
C 711.19 889.72 612.04 918.98 512.00 945.00
C 512.00 906.00 512.00 867.00 512.00 828.00 Z"/>
</g>
<g fill="#000000" fill-opacity="0.00" stroke="None">
<path d="
M 515.00 1024.00 
L 1024.00 1024.00
L 1024.00 0.00
L 964.00 0.00
C 936.72 307.35 908.72 614.52 882.00 922.00
C 759.68 955.90 636.79 989.45 515.00 1024.00 Z"/>
</g>
<g fill="#2465F0" fill-opacity="1.00" stroke="None">
<path d="
M 512.00 188.00 
C 606.34 188.00 700.66 188.00 795.00 188.00
C 794.61 189.57 795.94 192.22 794.00 193.00
C 790.45 288.45 775.15 382.73 769.00 478.00 C 762.85 573.27 749.49 668.40 744.00 764.00
C 666.68 785.43 589.55 807.41 512.00 828.00
C 512.00 867.00 512.00 906.00 512.00 945.00
C 612.04 918.98 711.19 889.72 811.00 863.00
C 833.75 600.18 858.10 337.77 881.00 75.00
C 758.00 75.00 635.00 75.00 512.00 75.00
C 512.00 112.67 512.00 150.33 512.00 188.00 Z"/>
</g>
<g fill="#A3B7F1" fill-opacity="1.00" stroke="None">
<path d="
M 229.00 189.00 
C 417.33 189.00 605.67 189.00 794.00 189.00
C 794.00 190.33 794.00 191.67 794.00 193.00
C 795.94 192.22 794.61 189.57 795.00 188.00
C 700.66 188.00 606.34 188.00 512.00 188.00
C 504.67 188.00 497.33 188.00 490.00 188.00 C 482.67 188.00 475.33 188.00 468.00 188.00 C 460.67 188.00 453.32 188.00 446.00 188.00 C 438.68 188.00 431.31 188.00 424.00 188.00 C 416.69 188.00 409.29 188.00 402.00 188.00 C 394.71 188.00 387.24 187.99 380.00 188.00 C 372.76 188.01 366.22 187.98 359.00 188.00 C 351.78 188.02 344.23 187.95 337.00 188.00 C 329.77 188.05 322.16 187.89 315.00 188.00 C 307.84 188.11 299.99 187.76 293.00 188.00 C 286.01 188.24 277.59 187.47 271.00 188.00 C 264.41 188.53 254.68 186.83 249.00 188.00 C 243.32 189.17 231.95 184.78 229.00 189.00 Z"/>
</g>
<g fill="#F5F5F5" fill-opacity="1.00" stroke="None">
<path d="
M 238.00 295.00 
C 238.20 296.38 239.89 298.94 239.00 301.00
C 329.66 301.00 420.33 301.00 511.00 301.00
C 564.33 301.00 617.67 301.00 671.00 301.00
C 670.61 302.57 671.94 305.22 670.00 306.00
C 669.76 312.35 669.88 318.90 669.00 325.00 C 668.12 331.10 667.93 337.00 667.01 343.01 C 666.08 349.02 666.57 355.72 665.67 361.67 C 664.77 367.62 665.07 374.23 664.00 380.00 C 662.94 385.77 663.84 392.74 662.02 398.02 C 660.21 403.31 664.05 412.64 661.00 417.00
C 657.94 421.38 645.92 416.76 640.00 418.00 C 634.08 419.24 623.88 417.44 617.00 418.00 C 610.12 418.56 601.31 417.75 594.00 418.00 C 586.69 418.25 578.51 417.89 571.00 418.00 C 563.49 418.11 555.59 417.95 548.00 418.00 C 540.41 418.05 532.63 417.98 525.00 418.00 C 517.37 418.02 509.65 417.99 502.00 418.00 C 494.35 418.01 486.66 418.00 479.00 418.00 C 471.34 418.00 463.66 418.00 456.00 418.00 C 448.34 418.00 440.67 418.00 433.00 418.00 C 425.33 418.00 417.67 418.00 410.00 418.00 C 402.33 418.00 394.67 418.00 387.00 418.00 C 379.33 418.00 371.67 418.00 364.00 418.00 C 356.33 418.00 348.67 418.00 341.00 418.00 C 333.33 418.00 325.67 418.00 318.00 418.00 C 310.33 418.00 302.67 418.00 295.00 418.00 C 287.33 418.00 279.67 418.00 272.00 418.00 C 264.33 418.00 256.67 418.00 249.00 418.00
C 246.76 421.34 250.61 427.89 250.01 432.99 C 249.41 438.09 250.31 439.20 251.22 446.78 C 252.13 454.36 253.35 466.27 254.00 474.00 C 254.65 481.72 254.44 482.73 255.22 488.78 C 256.00 494.83 255.49 497.76 256.22 502.78 C 256.96 507.80 257.27 511.71 258.00 516.00 C 258.73 520.29 256.44 527.04 259.00 530.00
C 343.33 530.00 427.67 530.00 512.00 530.00
C 558.33 530.00 604.67 530.00 651.00 530.00
C 650.61 531.57 651.94 534.22 650.00 535.00
C 648.23 582.59 640.15 629.41 638.00 677.00
C 595.33 687.00 551.93 701.80 510.00 710.00
C 468.12 699.90 426.79 687.29 385.00 677.00
C 384.16 646.62 379.21 617.28 378.00 587.00
C 340.00 587.00 302.00 587.00 264.00 587.00
C 264.95 600.83 266.90 614.21 268.00 628.00 C 269.10 641.79 270.59 654.93 271.02 668.98 C 271.45 683.02 275.63 695.48 275.00 710.00 C 274.37 724.52 280.62 734.67 279.00 750.00 C 277.38 765.33 290.51 768.08 303.33 770.67 C 316.14 773.26 325.77 777.25 337.93 780.07 C 350.09 782.90 361.07 787.24 372.98 790.02 C 384.88 792.81 395.61 796.74 407.33 799.67 C 419.05 802.61 431.12 806.49 442.78 809.22 C 454.43 811.95 465.33 816.96 476.98 819.02 C 488.62 821.09 500.15 828.00 512.00 828.00
C 589.55 807.41 666.68 785.43 744.00 764.00
C 749.49 668.40 762.85 573.27 769.00 478.00 C 775.15 382.73 790.45 288.45 794.00 193.00
C 794.00 191.67 794.00 190.33 794.00 189.00
C 605.67 189.00 417.33 189.00 229.00 189.00
C 225.80 193.58 230.79 205.01 230.22 210.78 C 229.65 216.55 231.99 225.44 232.07 231.93 C 232.16 238.41 233.76 246.15 234.02 252.98 C 234.29 259.80 235.68 266.99 236.01 273.99 C 236.34 280.99 237.58 287.91 238.00 295.00 Z"/>
</g>
<g fill="#768DE8" fill-opacity="1.00" stroke="None">
<path d="
M 511.00 302.00 
C 510.75 301.75 511.00 301.00 511.00 301.00
C 420.33 301.00 329.66 301.00 239.00 301.00
C 239.89 298.94 238.20 296.38 238.00 295.00
C 238.73 307.30 255.48 300.94 266.00 302.00 C 276.52 303.06 289.85 301.52 301.00 302.00 C 312.15 302.48 324.57 301.78 336.00 302.00 C 347.43 302.22 359.44 301.90 371.00 302.00 C 382.56 302.10 394.38 301.96 406.00 302.00 C 417.62 302.04 429.36 301.98 441.00 302.00 C 452.64 302.02 464.35 301.99 476.00 302.00 C 487.65 302.01 499.34 302.00 511.00 302.00 Z"/>
</g>
<g fill="#7FA3F6" fill-opacity="1.00" stroke="None">
<path d="
M 511.00 302.00 
C 511.00 302.00 511.50 302.00 512.00 302.00
C 564.67 302.00 617.33 302.00 670.00 302.00
C 670.00 303.33 670.00 304.67 670.00 306.00
C 671.94 305.22 670.61 302.57 671.00 301.00
C 617.67 301.00 564.33 301.00 511.00 301.00
C 511.00 301.00 510.75 301.75 511.00 302.00 Z"/>
</g>
<g fill="#2465F0" fill-opacity="1.00" stroke="None">
<path d="
M 512.00 417.00 
C 561.67 417.00 611.33 417.00 661.00 417.00
C 664.05 412.64 660.21 403.31 662.02 398.02 C 663.84 392.74 662.94 385.77 664.00 380.00 C 665.07 374.23 664.77 367.62 665.67 361.67 C 666.57 355.72 666.08 349.02 667.01 343.01 C 667.93 337.00 668.12 331.10 669.00 325.00 C 669.88 318.90 669.76 312.35 670.00 306.00
C 670.00 304.67 670.00 303.33 670.00 302.00
C 617.33 302.00 564.67 302.00 512.00 302.00
C 515.43 340.02 509.43 378.90 512.00 417.00 Z"/>
</g>
<g fill="#CAD3F1" fill-opacity="1.00" stroke="None">
<path d="
M 249.00 418.00 
C 256.67 418.00 264.33 418.00 272.00 418.00 C 279.67 418.00 287.33 418.00 295.00 418.00 C 302.67 418.00 310.33 418.00 318.00 418.00 C 325.67 418.00 333.33 418.00 341.00 418.00 C 348.67 418.00 356.33 418.00 364.00 418.00 C 371.67 418.00 379.33 418.00 387.00 418.00 C 394.67 418.00 402.33 418.00 410.00 418.00 C 417.67 418.00 425.33 418.00 433.00 418.00 C 440.67 418.00 448.34 418.00 456.00 418.00 C 463.66 418.00 471.34 418.00 479.00 418.00 C 486.66 418.00 494.35 418.01 502.00 418.00 C 509.65 417.99 517.37 418.02 525.00 418.00 C 532.63 417.98 540.41 418.05 548.00 418.00 C 555.59 417.95 563.49 418.11 571.00 418.00 C 578.51 417.89 586.69 418.25 594.00 418.00 C 601.31 417.75 610.12 418.56 617.00 418.00 C 623.88 417.44 634.08 419.24 640.00 418.00 C 645.92 416.76 657.94 421.38 661.00 417.00
C 611.33 417.00 561.67 417.00 512.00 417.00
C 504.67 417.00 497.33 417.00 490.00 417.00 C 482.67 417.00 475.33 417.00 468.00 417.00 C 460.67 417.00 453.33 417.00 446.00 417.00 C 438.67 417.00 431.33 416.99 424.00 417.00 C 416.67 417.01 409.32 416.99 402.00 417.00 C 394.68 417.01 387.30 416.98 380.00 417.00 C 372.70 417.02 365.26 416.95 358.00 417.00 C 350.74 417.05 343.17 416.88 336.00 417.00 C 328.83 417.12 320.98 416.74 314.00 417.00 C 307.02 417.26 298.55 416.42 292.00 417.00 C 285.45 417.58 275.61 415.72 270.00 417.00 C 264.39 418.28 251.89 413.70 249.00 418.00 Z"/>
</g>
<g fill="#2565F0" fill-opacity="1.00" stroke="None">
<path d="
M 510.00 710.00 
C 551.93 701.80 595.33 687.00 638.00 677.00
C 640.15 629.41 648.23 582.59 650.00 535.00
C 649.74 533.72 650.20 532.29 650.00 531.00
C 604.17 530.34 557.01 532.33 512.00 530.00
C 427.67 530.00 343.33 530.00 259.00 530.00
C 342.35 532.34 427.83 530.33 512.00 531.00
C 511.98 539.63 512.02 548.38 512.00 557.00 C 511.98 565.62 512.05 574.42 512.00 583.00 C 511.96 591.58 512.10 600.51 512.00 609.00 C 511.90 617.49 512.21 626.72 512.00 635.00 C 511.79 643.28 512.47 653.19 512.00 661.00 C 511.53 668.81 513.04 680.24 512.00 687.00 C 510.96 693.76 515.32 707.72 510.00 710.00 Z"/>
</g>
<g fill="#5486F4" fill-opacity="1.00" stroke="None">
<path d="
M 650.00 535.00 
C 651.94 534.22 650.61 531.57 651.00 530.00
C 604.67 530.00 558.33 530.00 512.00 530.00
C 557.01 532.33 604.17 530.34 650.00 531.00
C 650.20 532.29 649.74 533.72 650.00 535.00 Z"/>
</g>
</svg>