<svg xmlns="http://www.w3.org/2000/svg" xmlns:v="https://svgstorm.com"
viewBox = "0 0 1024 1024"
width="1024"
height="1024">
<g fill="None" fill-opacity="0.0" stroke="#000000" stroke-opacity="0.00" stroke-width="0.3"><path d="
M 0.00 1024.00 
L 506.00 1024.00
C 495.56 1019.80 483.98 1017.39 472.93 1014.07 C 461.87 1010.75 450.50 1007.78 439.33 1004.67 C 428.16 1001.57 417.12 998.24 405.93 995.07 C 394.73 991.91 383.54 988.95 372.32 985.68 C 361.10 982.41 349.28 979.04 337.98 976.02 C 326.67 973.01 315.97 969.41 304.78 966.22 C 293.58 963.04 281.99 960.67 270.98 957.02 C 259.96 953.38 248.32 951.32 237.33 947.67 C 226.34 944.03 213.86 941.49 202.98 938.02 C 192.09 934.56 180.03 932.35 169.78 928.22 C 159.52 924.10 142.20 926.63 141.00 914.00 C 139.80 901.37 138.43 887.77 137.22 874.78 C 136.02 861.79 135.15 847.12 134.00 834.00 C 132.85 820.88 131.28 808.11 130.02 794.98 C 128.77 781.84 128.34 768.16 127.00 755.00 C 125.66 741.84 124.33 729.20 123.02 715.98 C 121.71 702.75 121.26 688.24 120.00 675.00 C 118.74 661.76 117.27 649.19 116.00 636.00 C 114.74 622.80 114.27 609.18 113.00 596.00 C 111.73 582.82 110.25 570.20 109.00 557.00 C 107.76 543.80 107.07 530.29 106.00 517.00 C 104.93 503.71 102.70 490.39 102.00 477.00 C 101.30 463.61 99.27 451.04 98.22 437.78 C 97.17 424.52 96.21 411.21 95.00 398.00 C 93.79 384.78 92.41 372.04 91.22 358.78 C 90.03 345.52 89.11 331.25 88.00 318.00 C 86.89 304.75 85.26 292.18 84.02 278.98 C 82.79 265.78 82.31 252.19 81.00 239.00 C 79.69 225.81 78.37 213.21 77.02 199.98 C 75.68 186.74 75.22 172.27 74.00 159.00 C 72.78 145.73 71.13 133.25 70.00 120.00 C 68.87 106.74 68.08 93.29 67.00 80.00 C 65.92 66.71 63.84 54.43 63.00 41.00 C 62.17 27.56 60.05 13.71 60.00 0.00
L 0.00 0.00
L 0.00 1024.00 Z"/>
</g>
<g fill="None" fill-opacity="0.0" stroke="#E34E25" stroke-opacity="1.00" stroke-width="0.3"><path d="
M 506.00 1024.00 
L 514.00 1024.00
C 523.58 1020.29 533.76 1017.80 544.02 1015.02 C 554.29 1012.25 564.72 1008.88 575.07 1006.07 C 585.43 1003.27 595.94 1000.34 606.22 997.22 C 616.50 994.11 627.45 991.89 637.68 988.68 C 647.91 985.47 657.79 983.18 668.07 980.07 C 678.36 976.97 688.96 974.47 699.22 971.22 C 709.49 967.98 720.41 965.91 730.67 962.67 C 740.94 959.44 751.69 956.94 762.01 954.01 C 772.33 951.07 782.75 947.82 793.02 945.02 C 803.30 942.23 813.23 939.54 823.22 936.22 C 833.21 932.91 845.12 931.76 854.68 927.68 C 864.23 923.59 879.99 925.93 881.00 914.00 C 882.01 902.07 883.36 889.15 884.00 877.00 C 884.64 864.85 887.15 853.98 887.78 841.78 C 888.41 829.58 889.72 817.10 890.99 804.99 C 892.26 792.88 892.63 780.13 894.00 768.00 C 895.37 755.87 896.16 743.25 897.00 731.00 C 897.84 718.75 900.11 707.13 900.93 694.93 C 901.74 682.72 902.65 671.09 903.99 658.99 C 905.33 646.90 905.65 634.15 907.00 622.00 C 908.35 609.85 909.14 597.27 910.00 585.00 C 910.86 572.73 913.04 561.16 913.93 548.93 C 914.82 536.69 915.69 524.10 917.00 512.00 C 918.30 499.90 918.69 488.11 920.00 476.00 C 921.31 463.89 922.09 451.23 923.00 439.00 C 923.91 426.77 926.05 415.15 926.93 402.93 C 927.81 390.70 928.67 378.09 930.00 366.00 C 931.32 353.90 931.62 342.10 933.00 330.00 C 934.38 317.90 935.06 305.23 936.00 293.00 C 936.94 280.77 939.11 269.19 939.93 256.93 C 940.75 244.66 941.69 232.15 943.00 220.00 C 944.31 207.85 944.63 195.10 946.00 183.00 C 947.37 170.90 948.16 159.22 949.00 147.00 C 949.84 134.78 952.18 123.21 952.93 110.93 C 953.67 98.64 954.78 86.21 956.00 74.00 C 957.22 61.78 957.94 49.29 959.00 37.00 C 960.06 24.71 962.06 12.59 962.00 0.00
L 60.00 0.00
C 60.05 13.71 62.17 27.56 63.00 41.00 C 63.84 54.43 65.92 66.71 67.00 80.00 C 68.08 93.29 68.87 106.74 70.00 120.00 C 71.13 133.25 72.78 145.73 74.00 159.00 C 75.22 172.27 75.68 186.74 77.02 199.98 C 78.37 213.21 79.69 225.81 81.00 239.00 C 82.31 252.19 82.79 265.78 84.02 278.98 C 85.26 292.18 86.89 304.75 88.00 318.00 C 89.11 331.25 90.03 345.52 91.22 358.78 C 92.41 372.04 93.79 384.78 95.00 398.00 C 96.21 411.21 97.17 424.52 98.22 437.78 C 99.27 451.04 101.30 463.61 102.00 477.00 C 102.70 490.39 104.93 503.71 106.00 517.00 C 107.07 530.29 107.76 543.80 109.00 557.00 C 110.25 570.20 111.73 582.82 113.00 596.00 C 114.27 609.18 114.74 622.80 116.00 636.00 C 117.27 649.19 118.74 661.76 120.00 675.00 C 121.26 688.24 121.71 702.75 123.02 715.98 C 124.33 729.20 125.66 741.84 127.00 755.00 C 128.34 768.16 128.77 781.84 130.02 794.98 C 131.28 808.11 132.85 820.88 134.00 834.00 C 135.15 847.12 136.02 861.79 137.22 874.78 C 138.43 887.77 139.80 901.37 141.00 914.00 C 142.20 926.63 159.52 924.10 169.78 928.22 C 180.03 932.35 192.09 934.56 202.98 938.02 C 213.86 941.49 226.34 944.03 237.33 947.67 C 248.32 951.32 259.96 953.38 270.98 957.02 C 281.99 960.67 293.58 963.04 304.78 966.22 C 315.97 969.41 326.67 973.01 337.98 976.02 C 349.28 979.04 361.10 982.41 372.32 985.68 C 383.54 988.95 394.73 991.91 405.93 995.07 C 417.12 998.24 428.16 1001.57 439.33 1004.67 C 450.50 1007.78 461.87 1010.75 472.93 1014.07 C 483.98 1017.39 495.56 1019.80 506.00 1024.00
M 512.00 828.00 
C 510.28 828.19 510.04 827.30 509.00 827.00
C 432.28 805.14 354.69 786.16 278.00 764.00
C 273.55 704.62 268.91 645.28 264.00 586.00
C 301.33 586.00 338.67 586.00 376.00 586.00
C 376.72 599.52 378.75 612.31 379.00 626.00 C 379.25 639.69 383.93 650.76 383.00 665.00 C 382.06 679.25 396.73 679.76 408.22 682.78 C 419.71 685.80 430.75 688.71 442.07 691.93 C 453.40 695.14 464.82 697.56 476.07 700.93 C 487.32 704.29 498.71 706.75 510.00 710.00
C 510.69 709.92 511.29 709.19 512.00 709.00
C 515.70 700.93 510.46 689.09 512.00 680.00 C 513.55 670.91 511.43 659.53 512.00 650.00 C 512.57 640.47 512.01 629.67 512.00 620.00 C 511.99 610.33 512.61 599.58 512.00 590.00 C 511.39 580.42 513.61 569.20 512.00 560.00 C 510.39 550.80 515.69 538.30 512.00 530.00
C 511.50 530.00 510.50 530.00 510.00 530.00
C 426.00 530.00 342.00 530.00 258.00 530.00
C 248.31 415.93 236.88 302.29 228.00 188.00
C 322.00 188.00 416.00 188.00 510.00 188.00
C 510.50 188.00 511.50 188.00 512.00 188.00
C 515.51 180.11 510.46 168.80 512.00 160.00 C 513.54 151.20 511.26 140.18 512.00 131.00 C 512.74 121.82 511.63 112.36 512.00 103.00 C 512.37 93.64 511.72 83.44 512.00 74.00
C 634.67 74.00 757.33 74.00 880.00 74.00
C 856.54 336.63 833.18 599.29 810.00 862.00
C 710.61 889.09 611.29 916.41 512.00 944.00
C 512.00 905.34 512.00 866.67 512.00 828.00 Z"/>
</g>
<g fill="None" fill-opacity="0.0" stroke="#000000" stroke-opacity="0.00" stroke-width="0.3"><path d="
M 514.00 1024.00 
L 1024.00 1024.00
L 1024.00 0.00
L 962.00 0.00
C 962.06 12.59 960.06 24.71 959.00 37.00 C 957.94 49.29 957.22 61.78 956.00 74.00 C 954.78 86.21 953.67 98.64 952.93 110.93 C 952.18 123.21 949.84 134.78 949.00 147.00 C 948.16 159.22 947.37 170.90 946.00 183.00 C 944.63 195.10 944.31 207.85 943.00 220.00 C 941.69 232.15 940.75 244.66 939.93 256.93 C 939.11 269.19 936.94 280.77 936.00 293.00 C 935.06 305.23 934.38 317.90 933.00 330.00 C 931.62 342.10 931.32 353.90 930.00 366.00 C 928.67 378.09 927.81 390.70 926.93 402.93 C 926.05 415.15 923.91 426.77 923.00 439.00 C 922.09 451.23 921.31 463.89 920.00 476.00 C 918.69 488.11 918.30 499.90 917.00 512.00 C 915.69 524.10 914.82 536.69 913.93 548.93 C 913.04 561.16 910.86 572.73 910.00 585.00 C 909.14 597.27 908.35 609.85 907.00 622.00 C 905.65 634.15 905.33 646.90 903.99 658.99 C 902.65 671.09 901.74 682.72 900.93 694.93 C 900.11 707.13 897.84 718.75 897.00 731.00 C 896.16 743.25 895.37 755.87 894.00 768.00 C 892.63 780.13 892.26 792.88 890.99 804.99 C 889.72 817.10 888.41 829.58 887.78 841.78 C 887.15 853.98 884.64 864.85 884.00 877.00 C 883.36 889.15 882.01 902.07 881.00 914.00 C 879.99 925.93 864.23 923.59 854.68 927.68 C 845.12 931.76 833.21 932.91 823.22 936.22 C 813.23 939.54 803.30 942.23 793.02 945.02 C 782.75 947.82 772.33 951.07 762.01 954.01 C 751.69 956.94 740.94 959.44 730.67 962.67 C 720.41 965.91 709.49 967.98 699.22 971.22 C 688.96 974.47 678.36 976.97 668.07 980.07 C 657.79 983.18 647.91 985.47 637.68 988.68 C 627.45 991.89 616.50 994.11 606.22 997.22 C 595.94 1000.34 585.43 1003.27 575.07 1006.07 C 564.72 1008.88 554.29 1012.25 544.02 1015.02 C 533.76 1017.80 523.58 1020.29 514.00 1024.00 Z"/>
</g>
<g fill="None" fill-opacity="0.0" stroke="#EF652A" stroke-opacity="1.00" stroke-width="0.3"><path d="
M 512.00 188.00 
C 606.00 187.99 700.00 188.01 794.00 188.00
C 792.05 225.67 786.47 262.44 784.00 300.00
C 693.33 300.00 602.67 300.00 512.00 300.00
C 515.48 307.84 510.69 320.29 512.00 329.00 C 513.31 337.71 512.00 349.05 512.00 358.00 C 512.00 366.95 513.31 378.29 512.00 387.00 C 510.69 395.71 515.48 408.16 512.00 416.00
C 599.33 415.97 686.67 416.02 774.00 416.00
C 760.53 531.29 753.41 648.17 742.00 764.00
C 665.42 785.32 587.91 805.60 512.00 828.00
C 512.00 866.67 512.00 905.34 512.00 944.00
C 611.29 916.41 710.61 889.09 810.00 862.00
C 833.18 599.29 856.54 336.63 880.00 74.00
C 757.33 74.00 634.67 74.00 512.00 74.00
C 511.72 83.44 512.37 93.64 512.00 103.00 C 511.63 112.36 512.74 121.82 512.00 131.00 C 511.26 140.18 513.54 151.20 512.00 160.00 C 510.46 168.80 515.51 180.11 512.00 188.00 Z"/>
</g>
<g fill="None" fill-opacity="0.0" stroke="#EBEBEB" stroke-opacity="1.00" stroke-width="0.3"><path d="
M 510.00 530.00 
C 506.60 522.34 511.21 510.57 510.00 502.00 C 508.79 493.43 509.99 481.81 510.00 473.00 C 510.01 464.19 508.64 453.57 510.00 445.00 C 511.36 436.43 506.55 423.77 510.00 416.00
C 460.67 415.98 411.33 416.01 362.00 416.00
C 358.52 377.38 355.20 338.71 352.00 300.00
C 404.67 300.00 457.33 300.00 510.00 300.00
C 506.64 292.43 511.26 280.41 510.00 272.00 C 508.74 263.59 510.00 252.64 510.00 244.00 C 510.00 235.36 508.74 224.41 510.00 216.00 C 511.26 207.59 506.64 195.57 510.00 188.00
C 416.00 188.00 322.00 188.00 228.00 188.00
C 236.88 302.29 248.31 415.93 258.00 530.00
C 342.00 530.00 426.00 530.00 510.00 530.00 Z"/>
</g>
<g fill="None" fill-opacity="0.0" stroke="#FEFEFE" stroke-opacity="1.00" stroke-width="0.3"><path d="
M 510.00 300.00 
C 510.50 300.00 511.50 300.00 512.00 300.00
C 602.67 300.00 693.33 300.00 784.00 300.00
C 786.47 262.44 792.05 225.67 794.00 188.00
C 700.00 188.01 606.00 187.99 512.00 188.00
C 511.50 188.00 510.50 188.00 510.00 188.00
C 506.64 195.57 511.26 207.59 510.00 216.00 C 508.74 224.41 510.00 235.36 510.00 244.00 C 510.00 252.64 508.74 263.59 510.00 272.00 C 511.26 280.41 506.64 292.43 510.00 300.00 Z"/>
</g>
<g fill="None" fill-opacity="0.0" stroke="#E24F26" stroke-opacity="1.00" stroke-width="0.3"><path d="
M 510.00 416.00 
C 510.50 416.00 511.50 416.00 512.00 416.00
C 515.48 408.16 510.69 395.71 512.00 387.00 C 513.31 378.29 512.00 366.95 512.00 358.00 C 512.00 349.05 513.31 337.71 512.00 329.00 C 510.69 320.29 515.48 307.84 512.00 300.00
C 511.50 300.00 510.50 300.00 510.00 300.00
C 457.33 300.00 404.67 300.00 352.00 300.00
C 355.20 338.71 358.52 377.38 362.00 416.00
C 411.33 416.01 460.67 415.98 510.00 416.00 Z"/>
</g>
<g fill="None" fill-opacity="0.0" stroke="#FEFEFE" stroke-opacity="1.00" stroke-width="0.3"><path d="
M 510.00 530.00 
C 510.50 530.00 511.50 530.00 512.00 530.00
C 558.00 530.00 604.00 530.00 650.00 530.00
C 645.43 578.68 640.79 627.35 636.00 676.00
C 594.64 686.92 553.59 698.92 512.00 709.00
C 511.29 709.19 510.69 709.92 510.00 710.00
C 506.11 718.48 512.65 734.20 510.00 743.00 C 507.35 751.80 511.10 752.99 510.00 760.00 C 508.90 767.01 510.28 770.89 510.00 777.00 C 509.72 783.11 509.65 788.49 510.00 794.00 C 510.35 799.51 508.79 806.19 510.00 811.00 C 511.21 815.81 507.54 824.15 509.00 827.00
C 510.04 827.30 510.28 828.19 512.00 828.00
C 587.91 805.60 665.42 785.32 742.00 764.00
C 753.41 648.17 760.53 531.29 774.00 416.00
C 686.67 416.02 599.33 415.97 512.00 416.00
C 511.50 416.00 510.50 416.00 510.00 416.00
C 506.55 423.77 511.36 436.43 510.00 445.00 C 508.64 453.57 510.01 464.19 510.00 473.00 C 509.99 481.81 508.79 493.43 510.00 502.00 C 511.21 510.57 506.60 522.34 510.00 530.00 Z"/>
</g>
<g fill="None" fill-opacity="0.0" stroke="#EF652A" stroke-opacity="1.00" stroke-width="0.3"><path d="
M 512.00 709.00 
C 553.59 698.92 594.64 686.92 636.00 676.00
C 640.79 627.35 645.43 578.68 650.00 530.00
C 604.00 530.00 558.00 530.00 512.00 530.00
C 515.69 538.30 510.39 550.80 512.00 560.00 C 513.61 569.20 511.39 580.42 512.00 590.00 C 512.61 599.58 511.99 610.33 512.00 620.00 C 512.01 629.67 512.57 640.47 512.00 650.00 C 511.43 659.53 513.55 670.91 512.00 680.00 C 510.46 689.09 515.70 700.93 512.00 709.00 Z"/>
</g>
<g fill="None" fill-opacity="0.0" stroke="#EAEAEA" stroke-opacity="1.00" stroke-width="0.3"><path d="
M 509.00 827.00 
C 507.54 824.15 511.21 815.81 510.00 811.00 C 508.79 806.19 510.35 799.51 510.00 794.00 C 509.65 788.49 509.72 783.11 510.00 777.00 C 510.28 770.89 508.90 767.01 510.00 760.00 C 511.10 752.99 507.35 751.80 510.00 743.00 C 512.65 734.20 506.11 718.48 510.00 710.00
C 498.71 706.75 487.32 704.29 476.07 700.93 C 464.82 697.56 453.40 695.14 442.07 691.93 C 430.75 688.71 419.71 685.80 408.22 682.78 C 396.73 679.76 382.06 679.25 383.00 665.00 C 383.93 650.76 379.25 639.69 379.00 626.00 C 378.75 612.31 376.72 599.52 376.00 586.00
C 338.67 586.00 301.33 586.00 264.00 586.00
C 268.91 645.28 273.55 704.62 278.00 764.00
C 354.69 786.16 432.28 805.14 509.00 827.00 Z"/>
</g>
<g fill="#000000" fill-opacity="0.00" stroke="None">
<path d="
M 0.00 1024.00 
L 506.00 1024.00
C 495.56 1019.80 483.98 1017.39 472.93 1014.07 C 461.87 1010.75 450.50 1007.78 439.33 1004.67 C 428.16 1001.57 417.12 998.24 405.93 995.07 C 394.73 991.91 383.54 988.95 372.32 985.68 C 361.10 982.41 349.28 979.04 337.98 976.02 C 326.67 973.01 315.97 969.41 304.78 966.22 C 293.58 963.04 281.99 960.67 270.98 957.02 C 259.96 953.38 248.32 951.32 237.33 947.67 C 226.34 944.03 213.86 941.49 202.98 938.02 C 192.09 934.56 180.03 932.35 169.78 928.22 C 159.52 924.10 142.20 926.63 141.00 914.00 C 139.80 901.37 138.43 887.77 137.22 874.78 C 136.02 861.79 135.15 847.12 134.00 834.00 C 132.85 820.88 131.28 808.11 130.02 794.98 C 128.77 781.84 128.34 768.16 127.00 755.00 C 125.66 741.84 124.33 729.20 123.02 715.98 C 121.71 702.75 121.26 688.24 120.00 675.00 C 118.74 661.76 117.27 649.19 116.00 636.00 C 114.74 622.80 114.27 609.18 113.00 596.00 C 111.73 582.82 110.25 570.20 109.00 557.00 C 107.76 543.80 107.07 530.29 106.00 517.00 C 104.93 503.71 102.70 490.39 102.00 477.00 C 101.30 463.61 99.27 451.04 98.22 437.78 C 97.17 424.52 96.21 411.21 95.00 398.00 C 93.79 384.78 92.41 372.04 91.22 358.78 C 90.03 345.52 89.11 331.25 88.00 318.00 C 86.89 304.75 85.26 292.18 84.02 278.98 C 82.79 265.78 82.31 252.19 81.00 239.00 C 79.69 225.81 78.37 213.21 77.02 199.98 C 75.68 186.74 75.22 172.27 74.00 159.00 C 72.78 145.73 71.13 133.25 70.00 120.00 C 68.87 106.74 68.08 93.29 67.00 80.00 C 65.92 66.71 63.84 54.43 63.00 41.00 C 62.17 27.56 60.05 13.71 60.00 0.00
L 0.00 0.00
L 0.00 1024.00 Z"/>
</g>
<g fill="#E34E25" fill-opacity="1.00" stroke="None">
<path d="
M 506.00 1024.00 
L 514.00 1024.00
C 523.58 1020.29 533.76 1017.80 544.02 1015.02 C 554.29 1012.25 564.72 1008.88 575.07 1006.07 C 585.43 1003.27 595.94 1000.34 606.22 997.22 C 616.50 994.11 627.45 991.89 637.68 988.68 C 647.91 985.47 657.79 983.18 668.07 980.07 C 678.36 976.97 688.96 974.47 699.22 971.22 C 709.49 967.98 720.41 965.91 730.67 962.67 C 740.94 959.44 751.69 956.94 762.01 954.01 C 772.33 951.07 782.75 947.82 793.02 945.02 C 803.30 942.23 813.23 939.54 823.22 936.22 C 833.21 932.91 845.12 931.76 854.68 927.68 C 864.23 923.59 879.99 925.93 881.00 914.00 C 882.01 902.07 883.36 889.15 884.00 877.00 C 884.64 864.85 887.15 853.98 887.78 841.78 C 888.41 829.58 889.72 817.10 890.99 804.99 C 892.26 792.88 892.63 780.13 894.00 768.00 C 895.37 755.87 896.16 743.25 897.00 731.00 C 897.84 718.75 900.11 707.13 900.93 694.93 C 901.74 682.72 902.65 671.09 903.99 658.99 C 905.33 646.90 905.65 634.15 907.00 622.00 C 908.35 609.85 909.14 597.27 910.00 585.00 C 910.86 572.73 913.04 561.16 913.93 548.93 C 914.82 536.69 915.69 524.10 917.00 512.00 C 918.30 499.90 918.69 488.11 920.00 476.00 C 921.31 463.89 922.09 451.23 923.00 439.00 C 923.91 426.77 926.05 415.15 926.93 402.93 C 927.81 390.70 928.67 378.09 930.00 366.00 C 931.32 353.90 931.62 342.10 933.00 330.00 C 934.38 317.90 935.06 305.23 936.00 293.00 C 936.94 280.77 939.11 269.19 939.93 256.93 C 940.75 244.66 941.69 232.15 943.00 220.00 C 944.31 207.85 944.63 195.10 946.00 183.00 C 947.37 170.90 948.16 159.22 949.00 147.00 C 949.84 134.78 952.18 123.21 952.93 110.93 C 953.67 98.64 954.78 86.21 956.00 74.00 C 957.22 61.78 957.94 49.29 959.00 37.00 C 960.06 24.71 962.06 12.59 962.00 0.00
L 60.00 0.00
C 60.05 13.71 62.17 27.56 63.00 41.00 C 63.84 54.43 65.92 66.71 67.00 80.00 C 68.08 93.29 68.87 106.74 70.00 120.00 C 71.13 133.25 72.78 145.73 74.00 159.00 C 75.22 172.27 75.68 186.74 77.02 199.98 C 78.37 213.21 79.69 225.81 81.00 239.00 C 82.31 252.19 82.79 265.78 84.02 278.98 C 85.26 292.18 86.89 304.75 88.00 318.00 C 89.11 331.25 90.03 345.52 91.22 358.78 C 92.41 372.04 93.79 384.78 95.00 398.00 C 96.21 411.21 97.17 424.52 98.22 437.78 C 99.27 451.04 101.30 463.61 102.00 477.00 C 102.70 490.39 104.93 503.71 106.00 517.00 C 107.07 530.29 107.76 543.80 109.00 557.00 C 110.25 570.20 111.73 582.82 113.00 596.00 C 114.27 609.18 114.74 622.80 116.00 636.00 C 117.27 649.19 118.74 661.76 120.00 675.00 C 121.26 688.24 121.71 702.75 123.02 715.98 C 124.33 729.20 125.66 741.84 127.00 755.00 C 128.34 768.16 128.77 781.84 130.02 794.98 C 131.28 808.11 132.85 820.88 134.00 834.00 C 135.15 847.12 136.02 861.79 137.22 874.78 C 138.43 887.77 139.80 901.37 141.00 914.00 C 142.20 926.63 159.52 924.10 169.78 928.22 C 180.03 932.35 192.09 934.56 202.98 938.02 C 213.86 941.49 226.34 944.03 237.33 947.67 C 248.32 951.32 259.96 953.38 270.98 957.02 C 281.99 960.67 293.58 963.04 304.78 966.22 C 315.97 969.41 326.67 973.01 337.98 976.02 C 349.28 979.04 361.10 982.41 372.32 985.68 C 383.54 988.95 394.73 991.91 405.93 995.07 C 417.12 998.24 428.16 1001.57 439.33 1004.67 C 450.50 1007.78 461.87 1010.75 472.93 1014.07 C 483.98 1017.39 495.56 1019.80 506.00 1024.00
M 512.00 828.00 
C 510.28 828.19 510.04 827.30 509.00 827.00
C 432.28 805.14 354.69 786.16 278.00 764.00
C 273.55 704.62 268.91 645.28 264.00 586.00
C 301.33 586.00 338.67 586.00 376.00 586.00
C 376.72 599.52 378.75 612.31 379.00 626.00 C 379.25 639.69 383.93 650.76 383.00 665.00 C 382.06 679.25 396.73 679.76 408.22 682.78 C 419.71 685.80 430.75 688.71 442.07 691.93 C 453.40 695.14 464.82 697.56 476.07 700.93 C 487.32 704.29 498.71 706.75 510.00 710.00
C 510.69 709.92 511.29 709.19 512.00 709.00
C 515.70 700.93 510.46 689.09 512.00 680.00 C 513.55 670.91 511.43 659.53 512.00 650.00 C 512.57 640.47 512.01 629.67 512.00 620.00 C 511.99 610.33 512.61 599.58 512.00 590.00 C 511.39 580.42 513.61 569.20 512.00 560.00 C 510.39 550.80 515.69 538.30 512.00 530.00
C 511.50 530.00 510.50 530.00 510.00 530.00
C 426.00 530.00 342.00 530.00 258.00 530.00
C 248.31 415.93 236.88 302.29 228.00 188.00
C 322.00 188.00 416.00 188.00 510.00 188.00
C 510.50 188.00 511.50 188.00 512.00 188.00
C 515.51 180.11 510.46 168.80 512.00 160.00 C 513.54 151.20 511.26 140.18 512.00 131.00 C 512.74 121.82 511.63 112.36 512.00 103.00 C 512.37 93.64 511.72 83.44 512.00 74.00
C 634.67 74.00 757.33 74.00 880.00 74.00
C 856.54 336.63 833.18 599.29 810.00 862.00
C 710.61 889.09 611.29 916.41 512.00 944.00
C 512.00 905.34 512.00 866.67 512.00 828.00 Z"/>
</g>
<g fill="#000000" fill-opacity="0.00" stroke="None">
<path d="
M 514.00 1024.00 
L 1024.00 1024.00
L 1024.00 0.00
L 962.00 0.00
C 962.06 12.59 960.06 24.71 959.00 37.00 C 957.94 49.29 957.22 61.78 956.00 74.00 C 954.78 86.21 953.67 98.64 952.93 110.93 C 952.18 123.21 949.84 134.78 949.00 147.00 C 948.16 159.22 947.37 170.90 946.00 183.00 C 944.63 195.10 944.31 207.85 943.00 220.00 C 941.69 232.15 940.75 244.66 939.93 256.93 C 939.11 269.19 936.94 280.77 936.00 293.00 C 935.06 305.23 934.38 317.90 933.00 330.00 C 931.62 342.10 931.32 353.90 930.00 366.00 C 928.67 378.09 927.81 390.70 926.93 402.93 C 926.05 415.15 923.91 426.77 923.00 439.00 C 922.09 451.23 921.31 463.89 920.00 476.00 C 918.69 488.11 918.30 499.90 917.00 512.00 C 915.69 524.10 914.82 536.69 913.93 548.93 C 913.04 561.16 910.86 572.73 910.00 585.00 C 909.14 597.27 908.35 609.85 907.00 622.00 C 905.65 634.15 905.33 646.90 903.99 658.99 C 902.65 671.09 901.74 682.72 900.93 694.93 C 900.11 707.13 897.84 718.75 897.00 731.00 C 896.16 743.25 895.37 755.87 894.00 768.00 C 892.63 780.13 892.26 792.88 890.99 804.99 C 889.72 817.10 888.41 829.58 887.78 841.78 C 887.15 853.98 884.64 864.85 884.00 877.00 C 883.36 889.15 882.01 902.07 881.00 914.00 C 879.99 925.93 864.23 923.59 854.68 927.68 C 845.12 931.76 833.21 932.91 823.22 936.22 C 813.23 939.54 803.30 942.23 793.02 945.02 C 782.75 947.82 772.33 951.07 762.01 954.01 C 751.69 956.94 740.94 959.44 730.67 962.67 C 720.41 965.91 709.49 967.98 699.22 971.22 C 688.96 974.47 678.36 976.97 668.07 980.07 C 657.79 983.18 647.91 985.47 637.68 988.68 C 627.45 991.89 616.50 994.11 606.22 997.22 C 595.94 1000.34 585.43 1003.27 575.07 1006.07 C 564.72 1008.88 554.29 1012.25 544.02 1015.02 C 533.76 1017.80 523.58 1020.29 514.00 1024.00 Z"/>
</g>
<g fill="#EF652A" fill-opacity="1.00" stroke="None">
<path d="
M 512.00 188.00 
C 606.00 187.99 700.00 188.01 794.00 188.00
C 792.05 225.67 786.47 262.44 784.00 300.00
C 693.33 300.00 602.67 300.00 512.00 300.00
C 515.48 307.84 510.69 320.29 512.00 329.00 C 513.31 337.71 512.00 349.05 512.00 358.00 C 512.00 366.95 513.31 378.29 512.00 387.00 C 510.69 395.71 515.48 408.16 512.00 416.00
C 599.33 415.97 686.67 416.02 774.00 416.00
C 760.53 531.29 753.41 648.17 742.00 764.00
C 665.42 785.32 587.91 805.60 512.00 828.00
C 512.00 866.67 512.00 905.34 512.00 944.00
C 611.29 916.41 710.61 889.09 810.00 862.00
C 833.18 599.29 856.54 336.63 880.00 74.00
C 757.33 74.00 634.67 74.00 512.00 74.00
C 511.72 83.44 512.37 93.64 512.00 103.00 C 511.63 112.36 512.74 121.82 512.00 131.00 C 511.26 140.18 513.54 151.20 512.00 160.00 C 510.46 168.80 515.51 180.11 512.00 188.00 Z"/>
</g>
<g fill="#EBEBEB" fill-opacity="1.00" stroke="None">
<path d="
M 510.00 530.00 
C 506.60 522.34 511.21 510.57 510.00 502.00 C 508.79 493.43 509.99 481.81 510.00 473.00 C 510.01 464.19 508.64 453.57 510.00 445.00 C 511.36 436.43 506.55 423.77 510.00 416.00
C 460.67 415.98 411.33 416.01 362.00 416.00
C 358.52 377.38 355.20 338.71 352.00 300.00
C 404.67 300.00 457.33 300.00 510.00 300.00
C 506.64 292.43 511.26 280.41 510.00 272.00 C 508.74 263.59 510.00 252.64 510.00 244.00 C 510.00 235.36 508.74 224.41 510.00 216.00 C 511.26 207.59 506.64 195.57 510.00 188.00
C 416.00 188.00 322.00 188.00 228.00 188.00
C 236.88 302.29 248.31 415.93 258.00 530.00
C 342.00 530.00 426.00 530.00 510.00 530.00 Z"/>
</g>
<g fill="#FEFEFE" fill-opacity="1.00" stroke="None">
<path d="
M 510.00 300.00 
C 510.50 300.00 511.50 300.00 512.00 300.00
C 602.67 300.00 693.33 300.00 784.00 300.00
C 786.47 262.44 792.05 225.67 794.00 188.00
C 700.00 188.01 606.00 187.99 512.00 188.00
C 511.50 188.00 510.50 188.00 510.00 188.00
C 506.64 195.57 511.26 207.59 510.00 216.00 C 508.74 224.41 510.00 235.36 510.00 244.00 C 510.00 252.64 508.74 263.59 510.00 272.00 C 511.26 280.41 506.64 292.43 510.00 300.00 Z"/>
</g>
<g fill="#E24F26" fill-opacity="1.00" stroke="None">
<path d="
M 510.00 416.00 
C 510.50 416.00 511.50 416.00 512.00 416.00
C 515.48 408.16 510.69 395.71 512.00 387.00 C 513.31 378.29 512.00 366.95 512.00 358.00 C 512.00 349.05 513.31 337.71 512.00 329.00 C 510.69 320.29 515.48 307.84 512.00 300.00
C 511.50 300.00 510.50 300.00 510.00 300.00
C 457.33 300.00 404.67 300.00 352.00 300.00
C 355.20 338.71 358.52 377.38 362.00 416.00
C 411.33 416.01 460.67 415.98 510.00 416.00 Z"/>
</g>
<g fill="#FEFEFE" fill-opacity="1.00" stroke="None">
<path d="
M 510.00 530.00 
C 510.50 530.00 511.50 530.00 512.00 530.00
C 558.00 530.00 604.00 530.00 650.00 530.00
C 645.43 578.68 640.79 627.35 636.00 676.00
C 594.64 686.92 553.59 698.92 512.00 709.00
C 511.29 709.19 510.69 709.92 510.00 710.00
C 506.11 718.48 512.65 734.20 510.00 743.00 C 507.35 751.80 511.10 752.99 510.00 760.00 C 508.90 767.01 510.28 770.89 510.00 777.00 C 509.72 783.11 509.65 788.49 510.00 794.00 C 510.35 799.51 508.79 806.19 510.00 811.00 C 511.21 815.81 507.54 824.15 509.00 827.00
C 510.04 827.30 510.28 828.19 512.00 828.00
C 587.91 805.60 665.42 785.32 742.00 764.00
C 753.41 648.17 760.53 531.29 774.00 416.00
C 686.67 416.02 599.33 415.97 512.00 416.00
C 511.50 416.00 510.50 416.00 510.00 416.00
C 506.55 423.77 511.36 436.43 510.00 445.00 C 508.64 453.57 510.01 464.19 510.00 473.00 C 509.99 481.81 508.79 493.43 510.00 502.00 C 511.21 510.57 506.60 522.34 510.00 530.00 Z"/>
</g>
<g fill="#EF652A" fill-opacity="1.00" stroke="None">
<path d="
M 512.00 709.00 
C 553.59 698.92 594.64 686.92 636.00 676.00
C 640.79 627.35 645.43 578.68 650.00 530.00
C 604.00 530.00 558.00 530.00 512.00 530.00
C 515.69 538.30 510.39 550.80 512.00 560.00 C 513.61 569.20 511.39 580.42 512.00 590.00 C 512.61 599.58 511.99 610.33 512.00 620.00 C 512.01 629.67 512.57 640.47 512.00 650.00 C 511.43 659.53 513.55 670.91 512.00 680.00 C 510.46 689.09 515.70 700.93 512.00 709.00 Z"/>
</g>
<g fill="#EAEAEA" fill-opacity="1.00" stroke="None">
<path d="
M 509.00 827.00 
C 507.54 824.15 511.21 815.81 510.00 811.00 C 508.79 806.19 510.35 799.51 510.00 794.00 C 509.65 788.49 509.72 783.11 510.00 777.00 C 510.28 770.89 508.90 767.01 510.00 760.00 C 511.10 752.99 507.35 751.80 510.00 743.00 C 512.65 734.20 506.11 718.48 510.00 710.00
C 498.71 706.75 487.32 704.29 476.07 700.93 C 464.82 697.56 453.40 695.14 442.07 691.93 C 430.75 688.71 419.71 685.80 408.22 682.78 C 396.73 679.76 382.06 679.25 383.00 665.00 C 383.93 650.76 379.25 639.69 379.00 626.00 C 378.75 612.31 376.72 599.52 376.00 586.00
C 338.67 586.00 301.33 586.00 264.00 586.00
C 268.91 645.28 273.55 704.62 278.00 764.00
C 354.69 786.16 432.28 805.14 509.00 827.00 Z"/>
</g>
</svg>